<svg width="512" height="512" fill="none" xmlns="http://www.w3.org/2000/svg"><path d="M176 432c8.837 0 16-7.163 16-16s-7.163-16-16-16-16 7.163-16 16 7.163 16 16 16zM400 432c8.837 0 16-7.163 16-16s-7.163-16-16-16-16 7.163-16 16 7.163 16 16 16zM48 80h64l48 272h256" stroke="#fff" stroke-width="32" stroke-linecap="round" stroke-linejoin="round"/><path d="M160 288h249.44a8.004 8.004 0 007.85-6.43l28.8-144a8.003 8.003 0 00-4.426-8.803 7.995 7.995 0 00-3.424-.767H128" stroke="#fff" stroke-width="32" stroke-linecap="round" stroke-linejoin="round"/></svg>