<svg width="512" height="512" fill="none" xmlns="http://www.w3.org/2000/svg"><path fill-rule="evenodd" clip-rule="evenodd" d="M414.73 97.1A222.129 222.129 0 00256.94 32C134 32 33.92 131.58 33.87 254a220.61 220.61 0 0029.78 111L32 480l118.25-30.87a223.632 223.632 0 00106.6 27h.09c122.93 0 223-99.59 223.06-222A220.188 220.188 0 00414.73 97.1zM256.94 438.66h-.08a185.744 185.744 0 01-94.36-25.72l-6.77-4-70.17 18.32 18.73-68.09-4.41-7A183.46 183.46 0 0171.53 254c0-101.73 83.21-184.5 185.48-184.5a185 185 0 01185.33 184.64c-.04 101.74-83.21 184.52-185.4 184.52zm101.69-138.19c-5.57-2.78-33-16.2-38.08-18.05-5.08-1.85-8.83-2.78-12.54 2.78-3.71 5.56-14.4 18-17.65 21.75-3.25 3.75-6.5 4.16-12.07 1.38-5.57-2.78-23.54-8.63-44.83-27.53-16.57-14.71-27.75-32.87-31-38.42-3.25-5.55-.35-8.56 2.44-11.32 2.51-2.49 5.57-6.48 8.36-9.72 2.79-3.24 3.72-5.56 5.57-9.26s.93-6.94-.46-9.71c-1.39-2.77-12.54-30.08-17.18-41.19-4.53-10.82-9.12-9.35-12.54-9.52-3.25-.16-7-.2-10.69-.2a20.524 20.524 0 00-14.86 6.94c-5.11 5.56-19.51 19-19.51 46.28s20 53.68 22.76 57.38c2.76 3.7 39.3 59.73 95.21 83.76a323.09 323.09 0 0031.78 11.68c13.35 4.22 25.5 3.63 35.1 2.2 10.71-1.59 33-13.42 37.63-26.38 4.63-12.96 4.64-24.06 3.25-26.37-1.39-2.31-5.11-3.71-10.69-6.48z" fill="#fff"/></svg>
