<svg width="512" height="512" fill="none" xmlns="http://www.w3.org/2000/svg"><path d="M349.33 69.33a93.62 93.62 0 0193.34 93.34v186.66a93.624 93.624 0 01-27.42 65.92 93.624 93.624 0 01-65.92 27.42H162.67a93.623 93.623 0 01-93.34-93.34V162.67a93.62 93.62 0 0193.34-93.34h186.66zm0-37.33H162.67C90.8 32 32 90.8 32 162.67v186.66C32 421.2 90.8 480 162.67 480h186.66C421.2 480 480 421.2 480 349.33V162.67C480 90.8 421.2 32 349.33 32z" fill="#fff"/><path d="M377.33 162.67a27.998 27.998 0 01-19.799-47.799 27.997 27.997 0 0143.08 4.243 27.998 27.998 0 014.719 15.556 27.949 27.949 0 01-8.183 19.817 27.94 27.94 0 01-19.817 8.183zM256 181.33a74.667 74.667 0 0168.986 46.095A74.667 74.667 0 01308.8 308.8a74.675 74.675 0 01-81.375 16.186A74.665 74.665 0 01181.33 256 74.749 74.749 0 01256 181.33zm0-37.33a112.004 112.004 0 00-103.475 69.14 111.994 111.994 0 0024.279 122.056 112.009 112.009 0 00122.057 24.279A112.006 112.006 0 00368 256a112 112 0 00-112-112z" fill="#fff"/></svg>
