<svg width="512" height="512" fill="none" xmlns="http://www.w3.org/2000/svg"><path d="M451 374c-15.88-16-54.34-39.35-73-48.76-24.3-12.24-26.3-13.24-45.4.95-12.74 9.47-21.21 17.93-36.12 14.75-14.91-3.18-47.31-21.11-75.68-49.39-28.37-28.28-47.34-61.62-50.53-76.48-3.19-14.86 5.41-23.23 14.79-36 13.22-18 12.22-21 .92-45.3-8.81-18.9-32.84-57-48.9-72.8C119.9 44 119.9 47 108.83 51.6A160.156 160.156 0 0083 65.37C67 76 58.12 84.83 51.91 98.1c-6.21 13.27-9 44.38 23.07 102.64s54.57 88.05 101.14 134.49c46.57 46.44 82.38 71.41 134.73 100.77 64.76 36.27 89.6 29.2 102.91 23 13.31-6.2 22.18-15 32.83-31a159.083 159.083 0 0013.8-25.8C465 391.17 468 391.17 451 374z" stroke="#fff" stroke-width="32" stroke-miterlimit="10"/></svg>
